<svg width="74" height="68" viewBox="0 0 74 68" fill="none" xmlns="http://www.w3.org/2000/svg">
<ellipse cx="36.9367" cy="34" rx="36.3635" ry="34" fill="#ECF0F8"/>
<g clip-path="url(#clip0_339_657)">
<path d="M21.7203 21.1766C19.8561 23.2669 19.4168 26.1862 20.5799 28.68L20.429 28.8211C20.013 29.21 20.013 29.8407 20.429 30.2297C20.637 30.4241 20.9097 30.5214 21.1822 30.5214C21.4548 30.5214 22.627 29.5831 22.627 29.5831C22.6272 29.5829 31.6888 21.1103 31.6891 21.1101L32.3806 20.4634C32.7967 20.0745 32.7967 19.4438 32.3806 19.0548C31.9647 18.6659 31.2902 18.6659 30.8741 19.0548L30.7232 19.196C28.2884 18.2032 25.4746 18.4596 23.3018 19.8381L20.5784 17.2917C20.1624 16.9028 19.4879 16.9028 19.0719 17.2917C18.6559 17.6807 18.6559 18.3113 19.0719 18.7003L21.7203 21.1766Z" fill="#37496F"/>
<path d="M42.8311 45.0903C43.4194 45.0903 43.8964 44.6443 43.8964 44.0942V42.1022H29.9769V44.0942C29.9769 44.6443 30.4538 45.0903 31.0421 45.0903H42.8311Z" fill="#37496F"/>
<path d="M54.0519 36.126H48.7965C48.2106 36.126 47.7313 36.5742 47.7313 37.122C47.7313 36.5735 47.2527 36.126 46.666 36.126H29.1956C28.6089 36.126 28.1304 36.5734 28.1303 37.1219C28.1303 36.5742 27.6509 36.126 27.065 36.126H19.8212C19.2353 36.126 18.756 36.5742 18.756 37.122V39.1141C18.756 39.6642 19.2329 40.1102 19.8212 40.1102H54.0519C54.6402 40.1102 55.1171 39.6642 55.1171 39.1141V37.122C55.1171 36.5742 54.6378 36.126 54.0519 36.126Z" fill="#37496F"/>
<path d="M45.6358 49.0079H40.8426V47.0823H33.0306V49.0079H27.7394C27.1511 49.0079 26.6741 49.4539 26.6741 50.004C26.6741 50.554 27.1511 51 27.7394 51H45.6358C46.2241 51 46.7011 50.554 46.7011 50.004C46.7011 49.4539 46.2242 49.0079 45.6358 49.0079Z" fill="#37496F"/>
</g>
<defs>
<clipPath id="clip0_339_657">
<rect width="36.3635" height="34" fill="white" transform="translate(18.7549 17)"/>
</clipPath>
</defs>
</svg>
