<svg width="74" height="68" viewBox="0 0 74 68" fill="none" xmlns="http://www.w3.org/2000/svg">
<ellipse cx="37.0637" cy="34" rx="36.3635" ry="34" fill="#ECF0F8"/>
<path d="M30.576 26.8378C30.498 26.8378 30.4209 26.823 30.3491 26.7944C30.2774 26.7658 30.2126 26.7239 30.1586 26.6713C29.5805 26.108 27.6924 24.0945 27.6057 21.834C27.6005 21.6987 27.6498 21.5666 27.7438 21.4637C27.8131 21.3857 27.8558 21.29 27.8664 21.1891C27.8624 21.1605 27.8086 21.1226 27.7889 21.1075C27.7111 21.0549 27.6486 20.985 27.6069 20.9041C27.5652 20.8232 27.5457 20.7339 27.5502 20.6443C27.5716 20.2377 27.7525 19.8528 28.0583 19.5632C27.9998 19.4805 27.9347 19.4021 27.8635 19.3286C27.7769 19.242 27.7231 19.1311 27.7104 19.0132C27.6978 18.8952 27.727 18.7766 27.7936 18.6756L27.9855 18.387C28.0543 17.8929 28.3757 16.2248 29.662 15.4102C29.9997 15.2032 30.3784 15.0619 30.7757 14.9948C31.173 14.9276 31.5807 14.936 31.9745 15.0194C32.2837 14.3387 32.7976 13.7565 33.4539 13.3437C34.6558 12.5907 36.2734 12.3972 38.2655 12.7675C43.3489 13.7183 44.5508 15.4475 45.1948 16.5761C45.6379 16.7466 46.0041 17.0555 46.2308 17.4502C46.3905 17.7616 46.4343 18.114 46.3551 18.4513C46.7565 18.8333 47.0336 19.3142 47.1541 19.8378C47.3587 20.6778 47.2442 24.5524 44.5618 26.5578C44.4711 26.6254 44.3608 26.666 44.2451 26.6742C44.1294 26.6824 44.0138 26.6579 43.9132 26.6039C43.8126 26.5498 43.7318 26.4687 43.6811 26.3712C43.6305 26.2736 43.6124 26.164 43.6293 26.0567C43.6628 25.8441 43.6902 25.6347 43.7114 25.4286C43.7533 25.0065 43.7013 24.5808 43.5588 24.1784C43.4162 23.7759 43.1861 23.4054 42.8829 23.0902C42.5798 22.775 42.2101 22.5218 41.7972 22.3466C41.3843 22.1715 40.9371 22.0781 40.4838 22.0724C38.9411 22.0308 37.4317 21.6434 36.0826 20.9426L35.9444 20.8745C35.4464 20.6313 34.8894 20.5131 34.3279 20.5315C33.7664 20.5499 33.2197 20.7042 32.7411 20.9794C32.2544 21.2535 31.8523 21.6412 31.5741 22.1043C31.2959 22.5675 31.1512 23.0903 31.1541 23.6216V26.2972C31.1541 26.4052 31.1195 26.5106 31.0548 26.6C30.9901 26.6895 30.8983 26.7587 30.7911 26.7988C30.7228 26.8247 30.6497 26.8379 30.576 26.8378ZM28.7723 21.9686C28.923 22.9866 29.3444 23.953 29.9979 24.7794V23.6216C29.9968 22.9089 30.1917 22.2079 30.5639 21.5859C30.9361 20.964 31.4731 20.442 32.1233 20.07C32.7735 19.6981 33.515 19.4887 34.2767 19.4621C35.0384 19.4354 35.7947 19.5923 36.4728 19.9178L36.6254 19.9929C37.8123 20.6117 39.1406 20.9554 40.4988 20.9951C41.578 21.0089 42.6149 21.3895 43.4158 22.066C44.2167 22.7424 44.7268 23.6683 44.8509 24.6707C45.7539 23.2893 46.1635 21.6751 46.0204 20.0616C45.9114 19.664 45.6728 19.3081 45.3376 19.0432C45.2415 18.9701 45.1728 18.8702 45.1416 18.7581C45.1104 18.646 45.1183 18.5275 45.1642 18.4199C45.2087 18.3455 45.2345 18.2625 45.2394 18.1773C45.2443 18.0922 45.2282 18.0071 45.1925 17.9286C45.0574 17.7394 44.8571 17.5991 44.6248 17.5313C44.5496 17.5109 44.4796 17.4764 44.4191 17.4299C44.3586 17.3835 44.3088 17.326 44.2727 17.261C43.7091 16.2524 42.8598 14.7318 38.0412 13.8307C36.3647 13.5194 35.0385 13.6572 34.1054 14.2437C33.5292 14.6028 33.1105 15.1439 32.9261 15.768C32.9104 15.8425 32.8782 15.913 32.8315 15.975C32.7847 16.037 32.7246 16.0892 32.6549 16.128C32.5852 16.1669 32.5075 16.1916 32.427 16.2005C32.3464 16.2095 32.2647 16.2024 32.1872 16.1799C31.8868 16.0637 31.5615 16.0143 31.2372 16.0357C30.9128 16.0571 30.5982 16.1486 30.3182 16.3032C29.2863 16.9518 29.1255 18.5972 29.1238 18.614C29.1161 18.6993 29.087 18.7817 29.0388 18.8545L28.9943 18.9216C29.2133 19.1794 29.3156 19.5071 29.2793 19.8345C29.2538 19.9525 29.1985 20.0631 29.118 20.1571C29.0376 20.2511 28.9343 20.3259 28.8168 20.3751C28.7881 20.4064 28.7674 20.4433 28.7561 20.4832C28.8992 20.6485 28.9894 20.8482 29.0163 21.0594C29.0448 21.3793 28.959 21.6991 28.7723 21.9686ZM28.3139 19.4053L28.2971 19.4134L28.3139 19.4053Z" fill="#37496F"/>
<path d="M37.4053 35.6285C35.1148 35.5707 33.573 34.0475 32.082 32.5745C31.9225 32.4166 31.7629 32.2588 31.6028 32.1037C30.5288 31.0282 29.9525 29.5998 29.9991 28.1291V26.1372C29.9991 25.9938 30.06 25.8563 30.1684 25.755C30.2768 25.6536 30.4239 25.5966 30.5772 25.5966C30.7305 25.5966 30.8776 25.6536 30.986 25.755C31.0944 25.8563 31.1553 25.9938 31.1553 26.1372V28.168C31.1276 29.3437 31.5863 30.484 32.4358 31.3512C32.5983 31.5091 32.7601 31.6691 32.922 31.8291C34.3095 33.2026 35.6253 34.4999 37.4053 34.5458C39.1535 34.4999 40.4693 33.2026 41.8568 31.8285C42.0187 31.6691 42.1805 31.5091 42.3424 31.3512C43.1852 30.4936 43.6445 29.3666 43.6258 28.2021V26.135C43.6258 25.9917 43.6867 25.8542 43.7952 25.7528C43.9036 25.6514 44.0506 25.5945 44.204 25.5945C44.3573 25.5945 44.5043 25.6514 44.6127 25.7528C44.7212 25.8542 44.7821 25.9917 44.7821 26.135V28.1658C44.8188 29.6237 44.2424 31.0368 43.1766 32.1015C43.0165 32.2566 42.8575 32.4145 42.698 32.5718C41.2058 34.0475 39.6646 35.5707 37.4053 35.6285Z" fill="#37496F"/>
<path d="M30.3182 28.8919C29.1377 28.8919 28.1792 27.8108 28.1792 26.4832C28.172 26.1226 28.2449 25.7645 28.3932 25.4316C28.5414 25.0986 28.7618 24.798 29.0405 24.5486C29.1549 24.4531 29.3052 24.4039 29.4584 24.412C29.6115 24.42 29.7549 24.4847 29.8571 24.5916C29.9593 24.6986 30.0119 24.8391 30.0033 24.9823C29.9947 25.1254 29.9256 25.2596 29.8112 25.3551C29.6533 25.5025 29.5295 25.6788 29.4477 25.8728C29.3658 26.0669 29.3276 26.2747 29.3354 26.4832C29.3354 27.253 29.8788 27.8886 30.4292 27.8021C30.5804 27.7784 30.7356 27.8118 30.8605 27.8951C30.9854 27.9783 31.0698 28.1045 31.0952 28.2459C31.1205 28.3874 31.0848 28.5324 30.9958 28.6492C30.9068 28.766 30.7718 28.8449 30.6205 28.8686C30.5206 28.8841 30.4195 28.8919 30.3182 28.8919Z" fill="#37496F"/>
<path d="M44.4606 28.8919C44.3597 28.8919 44.2589 28.8839 44.1594 28.8681C44.0094 28.8431 43.8759 28.7637 43.7882 28.6472C43.7004 28.5307 43.6654 28.3865 43.6908 28.2459C43.7162 28.1054 43.7999 27.9799 43.9237 27.8968C44.0475 27.8137 44.2014 27.7797 44.3519 27.8021C44.8994 27.8892 45.4452 27.253 45.4452 26.4832C45.4531 26.2748 45.415 26.067 45.3332 25.8729C45.2514 25.6788 45.1278 25.5025 44.9699 25.3551C44.9133 25.3078 44.8672 25.2505 44.8342 25.1866C44.8013 25.1226 44.7821 25.0532 44.7778 24.9823C44.7692 24.8391 44.8218 24.6986 44.924 24.5916C45.0262 24.4847 45.1696 24.42 45.3228 24.412C45.4759 24.4039 45.6262 24.4531 45.7406 24.5486C46.0191 24.7981 46.2394 25.0987 46.3875 25.4317C46.5357 25.7646 46.6085 26.1227 46.6014 26.4832C46.6014 27.8113 45.6411 28.8919 44.4606 28.8919Z" fill="#37496F"/>
<path d="M34.8992 41.1622C34.8824 41.1622 34.8651 41.1622 34.8477 41.1622C34.76 41.1548 34.6752 41.1288 34.5998 41.0861C34.5245 41.0433 34.4606 40.9851 34.413 40.9157L31.7895 37.0919C31.7264 37.0001 31.6946 36.8925 31.6982 36.7833C31.7018 36.6742 31.7407 36.5687 31.8097 36.4806L32.7925 35.2309C32.8804 35.1187 33.0112 35.0425 33.1576 35.0181C33.304 34.9938 33.4549 35.0231 33.5788 35.1001L37.7117 37.6714C37.7808 37.715 37.839 37.7721 37.8822 37.8387C37.9255 37.9054 37.9528 37.9799 37.9624 38.0574C37.9719 38.1348 37.9635 38.2132 37.9376 38.2873C37.9117 38.3614 37.8689 38.4294 37.8123 38.4865L35.3224 40.9892C35.2683 41.0437 35.2029 41.0872 35.13 41.117C35.0572 41.1467 34.9786 41.1621 34.8992 41.1622ZM32.9769 36.8184L34.9836 39.7433L36.5029 38.2163L33.3961 36.2838L32.9769 36.8184Z" fill="#37496F"/>
<path d="M39.8791 41.1621C39.7996 41.1621 39.7211 41.1468 39.6483 41.1171C39.5755 41.0874 39.51 41.0441 39.4559 40.9897L36.9665 38.4864C36.9095 38.4291 36.8664 38.3609 36.8403 38.2864C36.8143 38.212 36.8058 38.1332 36.8155 38.0554C36.8253 37.9776 36.853 37.9027 36.8967 37.836C36.9404 37.7692 36.9992 37.7121 37.0688 37.6686L41.2018 35.0972C41.3257 35.0203 41.4765 34.991 41.623 35.0153C41.7694 35.0397 41.9001 35.1159 41.988 35.2281L42.9708 36.4778C43.0399 36.5658 43.0789 36.6713 43.0826 36.7804C43.0863 36.8896 43.0546 36.9972 42.9916 37.0891L40.3658 40.9135C40.3183 40.9828 40.2544 41.0411 40.179 41.0838C40.1037 41.1265 40.0189 41.1526 39.9311 41.16C39.9138 41.161 39.8964 41.1621 39.8791 41.1621ZM38.2759 38.2162L39.7952 39.7427L41.8019 36.8178L41.3827 36.2837L38.2759 38.2162Z" fill="#37496F"/>
<path d="M51.4836 51.6487H22.7189C22.1516 51.6487 21.6075 51.438 21.2063 51.0629C20.8052 50.6878 20.5798 50.1791 20.5798 49.6487V44.8254C20.5741 43.305 21.0922 41.8233 22.0574 40.5997C23.0227 39.3761 24.3837 38.4758 25.939 38.0319L32.2161 36.3152C32.3633 36.2749 32.5216 36.291 32.6561 36.3599C32.7906 36.4288 32.8903 36.5448 32.9333 36.6825C32.9763 36.8201 32.9591 36.968 32.8854 37.0938C32.8117 37.2195 32.6877 37.3128 32.5405 37.353L26.2731 39.067C24.9561 39.4445 23.8039 40.2082 22.987 41.2452C22.17 42.2822 21.7316 43.5375 21.7366 44.8254V49.6487C21.7366 49.8924 21.8402 50.1261 22.0245 50.2984C22.2088 50.4708 22.4588 50.5676 22.7194 50.5676H51.4836C51.7442 50.5676 51.9942 50.4708 52.1785 50.2984C52.3628 50.1261 52.4664 49.8924 52.4664 49.6487V44.2849C52.4713 42.9955 52.0319 41.739 51.2132 40.7014C50.3946 39.6639 49.2402 38.9005 47.9212 38.5243L42.3788 37.3892C42.229 37.3585 42.0984 37.2735 42.0157 37.1527C41.933 37.032 41.9049 36.8855 41.9377 36.7454C41.9705 36.6054 42.0615 36.4832 42.1906 36.4059C42.3198 36.3285 42.4765 36.3023 42.6263 36.333L48.2155 37.4773C49.7807 37.9154 51.1527 38.8146 52.1269 40.0409C53.1012 41.2672 53.6256 42.7551 53.622 44.2827V49.6487C53.622 50.179 53.3967 50.6876 52.9957 51.0627C52.5947 51.4377 52.0508 51.6485 51.4836 51.6487Z" fill="#37496F"/>
<path d="M37.3903 38.6573C37.2763 38.6575 37.1648 38.6261 37.07 38.567L32.9388 36C32.8469 35.9428 32.7745 35.8622 32.73 35.7678C32.6855 35.6733 32.6709 35.5689 32.6879 35.467L33.0677 33.1967C33.0786 33.1259 33.1044 33.0578 33.1436 32.9964C33.1828 32.935 33.2347 32.8815 33.2962 32.839C33.3577 32.7965 33.4276 32.7658 33.5019 32.7487C33.5762 32.7316 33.6534 32.7285 33.729 32.7395C33.8045 32.7505 33.877 32.7755 33.9422 32.8129C34.0074 32.8503 34.0641 32.8994 34.1088 32.9574C34.1536 33.0154 34.1855 33.0812 34.2029 33.1508C34.2203 33.2205 34.2227 33.2927 34.2101 33.3632L33.8869 35.2945L37.3903 37.4681L40.896 35.2897L40.5699 33.3589C40.5572 33.2883 40.5597 33.2161 40.577 33.1465C40.5944 33.0768 40.6264 33.0111 40.6712 32.9531C40.7159 32.8951 40.7725 32.846 40.8377 32.8086C40.9029 32.7712 40.9754 32.7462 41.051 32.7352C41.1266 32.7242 41.2037 32.7273 41.278 32.7444C41.3523 32.7615 41.4222 32.7921 41.4837 32.8347C41.5452 32.8772 41.5971 32.9307 41.6363 32.9921C41.6756 33.0535 41.7014 33.1216 41.7123 33.1924L42.0921 35.4627C42.1091 35.5647 42.0946 35.6692 42.0501 35.7637C42.0057 35.8583 41.9332 35.9389 41.8412 35.9962L37.7071 38.5643C37.6135 38.6236 37.5033 38.6559 37.3903 38.6573Z" fill="#37496F"/>
</svg>
