<svg width="74" height="68" viewBox="0 0 74 68" fill="none" xmlns="http://www.w3.org/2000/svg">
<ellipse cx="37.0637" cy="34" rx="36.3635" ry="34" fill="#ECF0F8"/>
<path d="M39.8333 40.75V44.5833C39.8333 45.0917 39.6314 45.5792 39.272 45.9386C38.9125 46.2981 38.425 46.5 37.9167 46.5H24.5L18.75 52.25V33.0833C18.75 32.575 18.9519 32.0875 19.3114 31.728C19.6708 31.3686 20.1583 31.1667 20.6667 31.1667H24.5M53.25 38.8333L47.5 33.0833H34.0833C33.575 33.0833 33.0875 32.8814 32.728 32.522C32.3686 32.1625 32.1667 31.675 32.1667 31.1667V19.6667C32.1667 19.1583 32.3686 18.6708 32.728 18.3114C33.0875 17.9519 33.575 17.75 34.0833 17.75H51.3333C51.8417 17.75 52.3292 17.9519 52.6886 18.3114C53.0481 18.6708 53.25 19.1583 53.25 19.6667V38.8333Z" stroke="#37496F" stroke-width="1.5" stroke-linecap="round" stroke-linejoin="round"/>
</svg>
