<svg width="74" height="68" viewBox="0 0 74 68" fill="none" xmlns="http://www.w3.org/2000/svg">
<ellipse cx="37.002" cy="34" rx="36.3635" ry="34" fill="#ECF0F8"/>
<g clip-path="url(#clip0_339_656)">
<path d="M21.5173 44.1987L21.5195 44.2007C22.5822 45.2049 23.7757 45.9615 25.1032 46.4756C26.435 46.9914 27.8323 47.25 29.3002 47.25C31.2011 47.25 32.7628 46.8192 34.0238 45.9968L36.1322 44.6218L36.3189 44.5H36.5419H37.4585H37.6815L37.8682 44.6218L39.9766 45.9968C41.2375 46.8192 42.7993 47.25 44.7002 47.25C46.1694 47.25 47.5673 46.9914 48.899 46.4756C50.2264 45.9616 51.4192 45.2051 52.4806 44.201L52.4835 44.1983C53.8638 42.9065 54.8583 41.3825 55.4743 39.6183C56.1025 37.819 56.4169 35.9545 56.4169 34.0209C56.4169 31.7612 55.8677 30.0053 54.8347 28.6863C53.8428 27.4198 52.3849 26.75 50.3358 26.75H50.3337C49.9543 26.7489 49.6009 26.7827 49.272 26.8489C48.9343 26.9169 48.585 27.0194 48.2236 27.1584L48.2161 27.1613L48.2161 27.1612L37.2619 31.2404L37.0002 31.3378L36.7385 31.2404L25.7843 27.1612L25.7779 27.1588L25.7779 27.1588C25.4176 27.0209 25.0685 26.9189 24.7302 26.8508C24.4008 26.7845 24.0455 26.75 23.6627 26.75C21.615 26.75 20.1576 27.4197 19.1657 28.6863C18.1328 30.0051 17.5836 31.7615 17.5835 34.0222L21.5173 44.1987ZM21.5173 44.1987C20.138 42.9056 19.144 41.3808 18.5279 39.6165M21.5173 44.1987L18.5279 39.6165M52.996 44.7459C54.4639 43.3721 55.526 41.7453 56.1824 39.8655C56.8387 37.9858 57.1669 36.0375 57.1669 34.0209C57.1669 31.6388 56.5863 29.7064 55.4252 28.2239C54.2641 26.7413 52.5676 26 50.3358 26C49.9105 25.9988 49.5066 26.0367 49.124 26.1137L52.996 44.7459ZM52.996 44.7459C51.8655 45.8153 50.5901 46.625 49.1699 47.175C47.7496 47.725 46.2597 48 44.7002 48C42.6835 48 40.9724 47.5417 39.5669 46.625L37.4585 45.25M52.996 44.7459L37.4585 45.25M37.4585 45.25H36.5419M37.4585 45.25H36.5419M36.5419 45.25L34.4335 46.625C33.028 47.5417 31.3169 48 29.3002 48C27.7419 48 26.2526 47.725 24.8324 47.175C23.4121 46.625 22.1361 45.8153 21.0044 44.7459C19.5377 43.3709 18.4762 41.7435 17.8199 39.8637C17.1635 37.9839 16.8347 36.0369 16.8335 34.0227L36.5419 45.25ZM18.5279 39.6165C17.8997 37.8171 17.5847 35.9537 17.5835 34.0227L18.5279 39.6165ZM33.5712 40.634C32.8806 41.1832 31.9952 41.4166 30.9965 41.4167L33.5712 40.634ZM33.5712 40.634C34.281 40.0695 34.6335 39.2901 34.6335 38.375M33.5712 40.634L34.6335 38.375M34.6335 38.375C34.6335 36.8126 33.5882 35.4775 31.9232 34.3402M34.6335 38.375L31.9232 34.3402M31.9232 34.3402C30.2233 33.1791 28.4127 32.5821 26.5044 32.5834L31.9232 34.3402ZM43.0049 41.4167C44.913 41.4166 46.7235 40.8191 48.4232 39.658C50.0879 38.5209 51.1335 37.1864 51.1335 35.625C51.1335 34.6993 50.8039 33.9014 50.0927 33.3404C49.4103 32.8021 48.5117 32.5834 47.496 32.5834C45.5877 32.5834 43.7771 33.1809 42.0772 34.3421C40.4124 35.4792 39.3669 36.8136 39.3669 38.375C39.3669 39.2828 39.7053 40.0616 40.399 40.6293C41.0831 41.1891 41.9851 41.418 43.0049 41.4167ZM43.0049 41.4167C43.0047 41.4167 43.0045 41.4167 43.0044 41.4167V40.6667L43.0049 41.4167ZM26.5038 32.5834C25.5052 32.5834 24.6197 32.8168 23.9292 33.366C23.2194 33.9305 22.8669 34.7099 22.8669 35.625C22.8669 37.1874 23.9122 38.5225 25.5772 39.6598C27.277 40.821 29.0877 41.4179 30.996 41.4167L26.5038 32.5834Z" stroke="#37496F" stroke-width="1.5"/>
</g>
<defs>
<clipPath id="clip0_339_656">
<rect width="44.9196" height="42" fill="white" transform="translate(14.5422 13)"/>
</clipPath>
</defs>
</svg>
