<svg width="73" height="68" viewBox="0 0 73 68" fill="none" xmlns="http://www.w3.org/2000/svg">
<ellipse cx="36.3635" cy="34" rx="36.3635" ry="34" fill="#ECF0F8"/>
<path d="M37.275 28.3V28.9H37.875H48.1875H49.6226L48.6146 27.8786L38.3021 17.4286L37.275 16.3878V17.85V28.3ZM39.75 49.8H40.35V49.2V47.3C40.35 46.4505 39.9245 45.7491 39.3383 45.2017C38.7564 44.6582 37.9793 44.2284 37.1607 43.8964C35.5247 43.2328 33.5731 42.9 32.25 42.9C30.9269 42.9 28.9753 43.2328 27.3393 43.8964C26.5207 44.2284 25.7436 44.6582 25.1617 45.2017C24.5755 45.7491 24.15 46.4505 24.15 47.3V49.2V49.8H24.75H39.75ZM24.75 15.6H39.4991L50.4 26.6462V49.2C50.4 50.0512 50.0662 50.866 49.4746 51.4656C48.8832 52.0648 48.0828 52.4 47.25 52.4H24.75C23.9172 52.4 23.1168 52.0648 22.5254 51.4656C21.9338 50.866 21.6 50.0512 21.6 49.2V18.8C21.6 17.0149 23.0076 15.6 24.75 15.6ZM32.25 33.4C31.0937 33.4 29.9864 33.8655 29.1713 34.6915C28.3564 35.5173 27.9 36.6356 27.9 37.8C27.9 38.9644 28.3564 40.0827 29.1713 40.9085C29.9864 41.7345 31.0937 42.2 32.25 42.2C33.4063 42.2 34.5136 41.7345 35.3287 40.9085C36.1436 40.0827 36.6 38.9644 36.6 37.8C36.6 36.6356 36.1436 35.5173 35.3287 34.6915C34.5136 33.8655 33.4063 33.4 32.25 33.4Z" stroke="#37496F" stroke-width="1.2"/>
</svg>
