<svg width="74" height="68" viewBox="0 0 74 68" fill="none" xmlns="http://www.w3.org/2000/svg">
<ellipse cx="36.9982" cy="34" rx="36.3635" ry="34" fill="#ECF0F8"/>
<path d="M21 22.8C21 22.3756 21.1686 21.9686 21.4686 21.6686C21.7687 21.3685 22.1757 21.2 22.6 21.2H51.4C51.8243 21.2 52.2313 21.3685 52.5314 21.6686C52.8314 21.9686 53 22.3756 53 22.8V45.2C53 45.6243 52.8314 46.0313 52.5314 46.3313C52.2313 46.6314 51.8243 46.8 51.4 46.8H22.6C22.1757 46.8 21.7687 46.6314 21.4686 46.3313C21.1686 46.0313 21 45.6243 21 45.2V22.8Z" stroke="#37496F" stroke-width="1.5" stroke-linejoin="round"/>
<path d="M46.6 21.2V46.8M27.4 21.2V46.8M48.2 29.2H53M48.2 38.8H53M21 29.2H25.8M21 27.6V30.8M25 21.2H29.8M25 46.8H29.8M44.2 21.2H49M44.2 46.8H49M21 38.8H25.8M21 37.2V40.4M53 37.2V40.4M53 27.6V30.8" stroke="#37496F" stroke-width="1.5" stroke-linecap="round" stroke-linejoin="round"/>
<path d="M34.6 30L41 34L34.6 38V30Z" stroke="#37496F" stroke-width="1.5" stroke-linejoin="round"/>
</svg>
