<svg width="74" height="68" viewBox="0 0 74 68" fill="none" xmlns="http://www.w3.org/2000/svg">
<ellipse cx="36.9367" cy="34" rx="36.3635" ry="34" fill="#ECF0F8"/>
<path d="M48 48H34C32.9 48 32 47.1 32 46V42H34V46H48V32H44V30H48C49.1 30 50 30.9 50 32V46C50 47.1 49.1 48 48 48Z" fill="#37496F"/>
<path d="M41 36C40.5 36 40.1 36.1 39.7 36.3L35.7 32.3C35.9 31.9 36 31.5 36 31C36 29.3 34.7 28 33 28C31.3 28 30 29.3 30 31C30 32.7 31.3 34 33 34C33.5 34 33.9 33.9 34.3 33.7L38.3 37.7C38.1 38.1 38 38.5 38 39C38 40.7 39.3 42 41 42C42.7 42 44 40.7 44 39C44 37.3 42.7 36 41 36ZM32 31C32 30.4 32.4 30 33 30C33.6 30 34 30.4 34 31C34 31.6 33.6 32 33 32C32.4 32 32 31.6 32 31ZM41 40C40.4 40 40 39.6 40 39C40 38.4 40.4 38 41 38C41.6 38 42 38.4 42 39C42 39.6 41.6 40 41 40Z" fill="#37496F"/>
<path d="M26 22H40C41.1 22 42 22.9 42 24V28H40V24H26V38H30V40H26C24.9 40 24 39.1 24 38V24C24 22.9 24.9 22 26 22Z" fill="#37496F"/>
</svg>
