<svg width="73" height="68" viewBox="0 0 73 68" fill="none" xmlns="http://www.w3.org/2000/svg">
<ellipse cx="36.3634" cy="34" rx="36.3635" ry="34" fill="#ECF0F8"/>
<path d="M36.3036 19.4286C36.5451 19.4286 36.7767 19.5245 36.9475 19.6953C37.1183 19.8661 37.2143 20.0978 37.2143 20.3393V20.6429H46.625C47.6716 20.6429 48.6754 21.0587 49.4155 21.7988C50.1556 22.5389 50.5714 23.5426 50.5714 24.5893V37.3393C50.5714 37.4198 50.5394 37.497 50.4825 37.554C50.4256 37.6109 50.3484 37.6429 50.2678 37.6429C50.1869 37.6414 50.1095 37.6093 50.0513 37.5529C49.9931 37.4966 49.9585 37.4202 49.9546 37.3393C49.8888 36.2623 49.4648 35.2382 48.75 34.4299V24.5893C48.75 24.0257 48.5261 23.4852 48.1276 23.0867C47.7291 22.6882 47.1886 22.4643 46.625 22.4643H25.375C24.8114 22.4643 24.2709 22.6882 23.8724 23.0867C23.4739 23.4852 23.25 24.0257 23.25 24.5893V39.7679C23.25 40.9409 24.202 41.8929 25.375 41.8929H38.8815C38.217 42.3294 37.7105 42.968 37.4365 43.7143H31.852L27.8752 48.2557C27.7161 48.4375 27.4913 48.5487 27.2503 48.5647C27.0092 48.5808 26.7717 48.5004 26.5899 48.3413C26.4081 48.1822 26.2969 47.9575 26.2809 47.7164C26.2648 47.4754 26.3452 47.2378 26.5043 47.056L29.4307 43.7143H25.375C24.8567 43.7143 24.3436 43.6122 23.8648 43.4139C23.386 43.2156 22.9509 42.9249 22.5844 42.5584C22.218 42.192 21.9273 41.7569 21.729 41.2781C21.5306 40.7993 21.4286 40.2861 21.4286 39.7679V24.5893C21.4286 23.5426 21.8443 22.5389 22.5844 21.7988C23.3245 21.0587 24.3283 20.6429 25.375 20.6429H35.3928V20.3393C35.3928 20.0978 35.4888 19.8661 35.6596 19.6953C35.8304 19.5245 36.062 19.4286 36.3036 19.4286ZM27.1916 26.1072C26.95 26.1072 26.7184 26.2031 26.5476 26.3739C26.3768 26.5447 26.2808 26.7763 26.2808 27.0179C26.2808 27.2594 26.3768 27.4911 26.5476 27.6618C26.7184 27.8326 26.95 27.9286 27.1916 27.9286H33.8713C34.1129 27.9286 34.3445 27.8326 34.5153 27.6618C34.6861 27.4911 34.7821 27.2594 34.7821 27.0179C34.7821 26.7763 34.6861 26.5447 34.5153 26.3739C34.3445 26.2031 34.1129 26.1072 33.8713 26.1072H27.1928H27.1916ZM27.1916 30.9643C26.95 30.9643 26.7184 31.0603 26.5476 31.231C26.3768 31.4018 26.2808 31.6335 26.2808 31.875C26.2808 32.1166 26.3768 32.3482 26.5476 32.519C26.7184 32.6898 26.95 32.7857 27.1916 32.7857H39.944C40.1855 32.7857 40.4172 32.6898 40.588 32.519C40.7588 32.3482 40.8547 32.1166 40.8547 31.875C40.8547 31.6335 40.7588 31.4018 40.588 31.231C40.4172 31.0603 40.1855 30.9643 39.944 30.9643H27.1916ZM27.1916 35.8214C26.95 35.8214 26.7184 35.9174 26.5476 36.0882C26.3768 36.259 26.2808 36.4906 26.2808 36.7322C26.2808 36.9737 26.3768 37.2053 26.5476 37.3761C26.7184 37.5469 26.95 37.6429 27.1916 37.6429H37.5154C37.757 37.6429 37.9886 37.5469 38.1594 37.3761C38.3302 37.2053 38.4261 36.9737 38.4261 36.7322C38.4261 36.4906 38.3302 36.259 38.1594 36.0882C37.9886 35.9174 37.757 35.8214 37.5154 35.8214H27.1916ZM48.75 37.6429C48.75 38.609 48.3662 39.5356 47.683 40.2188C46.9999 40.9019 46.0733 41.2857 45.1071 41.2857C44.141 41.2857 43.2144 40.9019 42.5312 40.2188C41.8481 39.5356 41.4643 38.609 41.4643 37.6429C41.4643 36.6767 41.8481 35.7502 42.5312 35.067C43.2144 34.3838 44.141 34 45.1071 34C46.0733 34 46.9999 34.3838 47.683 35.067C48.3662 35.7502 48.75 36.6767 48.75 37.6429ZM51.7857 45.2322C51.7857 47.5004 49.8781 49.7857 45.1071 49.7857C40.3362 49.7857 38.4286 47.5089 38.4286 45.2322V44.9832C38.4286 43.6111 39.5408 42.5 40.913 42.5H49.3025C50.6746 42.5 51.7857 43.6111 51.7857 44.9832V45.2322Z" fill="#37496F"/>
</svg>
