<svg width="50" height="39" viewBox="0 0 50 39" fill="none" xmlns="http://www.w3.org/2000/svg">
<path d="M22.5539 0.799996L15.0539 26.8L12.3539 16C15.6872 16 18.4206 16.9667 20.5539 18.9C22.6872 20.8333 23.7539 23.5 23.7539 26.9C23.7539 30.3 22.6539 33.0333 20.4539 35.1C18.3206 37.1 15.6206 38.1 12.3539 38.1C9.08724 38.1 6.35391 37.1 4.15391 35.1C2.02057 33.0333 0.953906 30.3 0.953906 26.9C0.953906 25.9667 1.02057 25.0333 1.15391 24.1C1.35391 23.1667 1.68724 22.0333 2.15391 20.7C2.62057 19.3667 3.32057 17.6333 4.25391 15.5L10.6539 0.799996H22.5539ZM48.7539 0.799996L41.2539 26.8L38.5539 16C41.8872 16 44.6206 16.9667 46.7539 18.9C48.8872 20.8333 49.9539 23.5 49.9539 26.9C49.9539 30.3 48.8539 33.0333 46.6539 35.1C44.5206 37.1 41.8206 38.1 38.5539 38.1C35.2872 38.1 32.5539 37.1 30.3539 35.1C28.2206 33.0333 27.1539 30.3 27.1539 26.9C27.1539 25.9667 27.2206 25.0333 27.3539 24.1C27.5539 23.1667 27.8872 22.0333 28.3539 20.7C28.8206 19.3667 29.5206 17.6333 30.4539 15.5L36.8539 0.799996H48.7539Z" fill="#37496F"/>
</svg>
