<svg width="50" height="39" viewBox="0 0 50 39" fill="none" xmlns="http://www.w3.org/2000/svg">
<path d="M27.4461 38.2L34.9461 12.2L37.6461 23C34.3128 23 31.5794 22.0333 29.4461 20.1C27.3128 18.1667 26.2461 15.5 26.2461 12.1C26.2461 8.7 27.3461 5.96667 29.5461 3.9C31.6794 1.9 34.3794 0.9 37.6461 0.900001C40.9128 0.900001 43.6461 1.9 45.8461 3.9C47.9794 5.96667 49.0461 8.7 49.0461 12.1C49.0461 13.0333 48.9794 13.9667 48.8461 14.9C48.6461 15.8333 48.3128 16.9667 47.8461 18.3C47.3794 19.6333 46.6794 21.3667 45.7461 23.5L39.3461 38.2L27.4461 38.2ZM1.2461 38.2L8.7461 12.2L11.4461 23C8.11276 23 5.37943 22.0333 3.2461 20.1C1.11276 18.1667 0.0460958 15.5 0.0460961 12.1C0.0460964 8.7 1.1461 5.96666 3.3461 3.9C5.47943 1.9 8.17943 0.899998 11.4461 0.899998C14.7128 0.899999 17.4461 1.9 19.6461 3.9C21.7794 5.96667 22.8461 8.7 22.8461 12.1C22.8461 13.0333 22.7794 13.9667 22.6461 14.9C22.4461 15.8333 22.1128 16.9667 21.6461 18.3C21.1794 19.6333 20.4794 21.3667 19.5461 23.5L13.1461 38.2L1.2461 38.2Z" fill="#37496F"/>
</svg>
